<?xml version="1.0" standalone="no"?>
<!DOCTYPE svg PUBLIC "-//W3C//DTD SVG 20010904//EN"
 "http://www.w3.org/TR/2001/REC-SVG-20010904/DTD/svg10.dtd">
<svg version="1.0" xmlns="http://www.w3.org/2000/svg"
 width="500.000000pt" height="500.000000pt" viewBox="0 0 500.000000 500.000000"
 preserveAspectRatio="xMidYMid meet">
<metadata>
Created by potrace 1.14, written by Peter Selinger 2001-2017
</metadata>
<g transform="translate(0.000000,500.000000) scale(0.100000,-0.100000)"
fill="#000000" stroke="none">
<path d="M2728 4283 c-49 -31 -59 -91 -19 -112 26 -14 61 -2 72 25 12 33 41
30 82 -6 50 -43 80 -120 81 -205 1 -77 -18 -145 -40 -145 -20 0 -18 -49 2 -57
9 -3 25 -1 35 5 16 10 16 8 -2 -34 -27 -60 -23 -118 9 -122 12 -2 22 0 23 5 0
4 1 24 3 43 4 59 82 194 158 275 106 114 325 247 377 230 44 -14 71 23 46 61
-23 35 -52 30 -163 -26 -168 -86 -313 -218 -404 -366 -16 -27 -27 -40 -22 -29
15 41 34 141 34 180 0 106 -53 227 -116 266 -48 29 -120 35 -156 12z"/>
<path d="M3244 3942 c-100 -35 -234 -166 -234 -228 0 -33 22 -60 40 -49 5 3
10 16 10 29 0 31 53 109 98 144 49 38 71 49 121 61 74 16 122 -6 194 -89 21
-24 45 -23 60 2 20 31 -7 64 -85 102 -93 45 -138 52 -204 28z"/>
<path d="M1896 3794 c-270 -42 -512 -146 -722 -309 -205 -161 -425 -459 -524
-710 -97 -250 -108 -524 -29 -765 165 -501 721 -941 1421 -1125 637 -166 1284
-78 1764 241 l81 55 50 -25 c137 -69 311 -59 462 27 117 66 235 207 256 304
10 48 -11 100 -48 120 -54 30 -192 19 -302 -23 -13 -5 -15 7 -15 84 0 196 -46
268 -156 247 -57 -10 -107 -67 -147 -165 -48 -117 -53 -145 -32 -177 l17 -25
-41 23 c-54 30 -139 103 -183 155 -123 148 -180 298 -263 694 -59 279 -85 377
-139 513 -24 62 -47 123 -51 137 -17 56 -97 201 -152 275 -182 245 -471 408
-807 454 -104 15 -331 12 -440 -5z m479 -186 c245 -48 480 -181 611 -346 117
-148 284 -573 330 -840 57 -328 166 -574 326 -734 73 -73 150 -124 264 -173
93 -39 119 -39 119 3 0 11 8 29 18 40 10 11 28 57 41 103 25 91 37 119 59 137
21 17 27 -24 27 -172 0 -156 7 -170 80 -174 40 -2 76 5 139 27 47 16 99 32
114 36 l28 6 -16 -31 c-45 -87 -162 -176 -269 -205 -121 -33 -267 -2 -300 64
-17 33 -51 47 -89 37 -13 -3 -57 -30 -98 -60 -41 -29 -114 -74 -164 -98 l-90
-45 -110 1 c-159 1 -186 16 -555 285 -366 267 -488 346 -693 447 -261 129
-502 171 -742 129 -165 -29 -295 -94 -407 -203 l-57 -55 -40 64 c-91 143 -131
275 -138 454 -4 108 -1 148 17 235 51 247 172 469 370 674 324 336 777 482
1225 394z m-659 -1638 c159 -28 403 -132 569 -242 39 -26 225 -169 415 -318
190 -149 371 -288 403 -307 31 -20 55 -38 53 -40 -14 -15 -311 -63 -387 -63
-23 0 -29 4 -29 21 0 47 -362 382 -640 594 -180 136 -232 185 -282 261 -26 39
-49 64 -60 64 -29 0 -21 -33 22 -98 51 -75 118 -138 285 -263 215 -161 422
-363 536 -523 l42 -59 -104 7 c-200 13 -382 47 -574 107 -89 28 -102 34 -115
62 -9 20 -31 40 -57 52 -119 58 -376 306 -485 471 -70 104 -120 202 -112 216
4 6 80 31 166 54 12 4 15 0 11 -16 -8 -32 174 -275 364 -486 152 -168 427
-404 471 -404 20 0 36 25 27 40 -3 4 -46 37 -97 73 -214 152 -396 339 -614
629 -81 108 -118 165 -111 170 18 11 235 9 303 -2z m-520 -191 c104 -186 287
-403 432 -513 28 -22 50 -41 48 -44 -13 -13 -262 133 -396 231 -108 81 -290
259 -290 285 1 9 11 29 23 44 24 29 108 98 119 98 4 0 32 -46 64 -101z"/>
<path d="M1757 3393 c-11 -10 -8 -61 3 -68 28 -18 76 27 64 59 -6 16 -54 22
-67 9z"/>
<path d="M2192 3208 c-18 -18 -15 -43 8 -63 39 -35 104 9 80 55 -12 23 -68 28
-88 8z"/>
<path d="M1889 3184 c-20 -24 1 -48 49 -55 23 -3 44 -8 48 -11 4 -5 -85 -38
-102 -38 -2 0 -4 15 -6 33 -2 24 -8 32 -23 32 -16 0 -21 -8 -23 -41 -3 -47 16
-74 53 -74 28 0 155 38 173 52 35 29 -4 80 -76 97 -26 7 -54 14 -63 17 -9 2
-22 -3 -30 -12z"/>
</g>
</svg>
